# xmcd
#
# Track frame offsets:
#	150
#	16427
#	35872
#	47517
#	62171
#	80424
#	92236
#	106375
#	123181
#	134038
#	146674
#
# Disc length: 2120 seconds
#
# Revision: 1
# Processed by: cddbd v1.5.2PL0 Copyright (c) Steve Scherf et al.
# Submitted via: audiograbber 1.83.01
#
DISCID=9d08460b
DTITLE=Amy Winehouse - Back To Black
DYEAR=2006
DGENRE=Pop
TTITLE0=Rehab
TTITLE1=You know I'm No good
TTITLE2=Me and Mr. Jones (Fuckery)
TTITLE3=Just Friends
TTITLE4=Back To Black
TTITLE5=Love Is A Losing Game
TTITLE6=Tears Dry On Their Own
TTITLE7=Wake Up Alone
TTITLE8=Some Unholy War
TTITLE9=He Can Only Hold Her
TTITLE10=Addicted
EXTD=
EXTT0=
EXTT1=
EXTT2=
EXTT3=
EXTT4=
EXTT5=
EXTT6=
EXTT7=
EXTT8=
EXTT9=
EXTT10=
PLAYORDER=
